<svg xmlns="http://www.w3.org/2000/svg" viewBox="0 0 791.08 1108.48"><defs><style>.cls-1{fill:aqua;stroke:#000;stroke-miterlimit:10;}</style></defs><g id="Layer_2" data-name="Layer 2"><g id="Layer_1-2" data-name="Layer 1"><path class="cls-1" d="M699.76,168.37c-8.88,154.34,23,211.15-6,230-52.77,34.34-163.68-150.78-300-128-92.2,15.4-175.37,122.46-157,188,19.58,69.86,209.26,11.74,412,120,108.18,57.77,109.73,129.78,131,212,30.93,119.58-3.84,298.42-112,316-73.87,12-105.26-46-323-85-92.83-16.63-137.74-12.6-174,11-44.65,29.06-62.08,78.6-87,73-13.6-3.06-20.7-20.58-32.65-63.33C21,934.23,4,873.35,23.76,862.37c21.57-12,49.1,56.25,127,75,64.83,15.61,75.64-24.43,177-26,83.62-1.29,118.43,25.31,172-2,12-6.12,47.59-25.94,51-53,7.74-61.39-149-106.51-198-119-157-40-140.73-58.93-216-110C65,578.66-10.19,478,1.76,372.37c14.56-128.64,153.65-223.31,268-247,131.68-27.28,199.59,46,304-10,80.62-43.21,109.66-124.14,132-114C724.3,9.78,705.64,66.11,699.76,168.37Z"/></g></g></svg>